<svg width="15" height="15" viewBox="0 0 15 15" fill="none" xmlns="http://www.w3.org/2000/svg">
<path fill-rule="evenodd" clip-rule="evenodd" d="M3 1.5C2.17157 1.5 1.5 2.17157 1.5 3V12C1.5 12.8284 2.17157 13.5 3 13.5H12C12.8284 13.5 13.5 12.8284 13.5 12V7.5C13.5 7.08579 13.8358 6.75 14.25 6.75C14.6642 6.75 15 7.08579 15 7.5V12C15 13.6569 13.6569 15 12 15H3C1.34315 15 0 13.6569 0 12V3C0 1.34315 1.34315 0 3 0H12.2908C13.787 0 15 1.21297 15 2.70924C15 3.41073 14.7279 4.08487 14.241 4.58982L8.2166 10.8373C7.8283 11.24 7.1852 11.2459 6.78965 10.8503L3.46967 7.53033C3.17678 7.23744 3.17678 6.76256 3.46967 6.46967C3.76256 6.17678 4.23744 6.17678 4.53033 6.46967L7.49027 9.42961L13.1612 3.54862C13.3786 3.32324 13.5 3.02234 13.5 2.70924C13.5 2.0414 12.9586 1.5 12.2908 1.5H3Z" fill="#AC171B"/>
</svg>
