<svg width="12" height="15" viewBox="0 0 12 15" fill="none" xmlns="http://www.w3.org/2000/svg">
<path fill-rule="evenodd" clip-rule="evenodd" d="M3.75 3.52778C3.75 2.42474 4.69393 1.5 6 1.5C7.30607 1.5 8.25 2.42474 8.25 3.52778V6H3.75V3.52778ZM2.25 6V3.52778C2.25 1.4749 3.99236 0 6 0C8.00764 0 9.75 1.4749 9.75 3.52778V6H10C11.1046 6 12 6.89543 12 8V13C12 14.1046 11.1046 15 10 15H2C0.895431 15 0 14.1046 0 13V8C0 6.89543 0.895431 6 2 6H2.25ZM1.5 8C1.5 7.72386 1.72386 7.5 2 7.5H10C10.2761 7.5 10.5 7.72386 10.5 8V13C10.5 13.2761 10.2761 13.5 10 13.5H2C1.72386 13.5 1.5 13.2761 1.5 13V8Z" fill="white"/>
</svg>
