<svg width="15" height="15" viewBox="0 0 15 15" fill="none" xmlns="http://www.w3.org/2000/svg">
<path fill-rule="evenodd" clip-rule="evenodd" d="M15 5.33333C15 4.46785 14.7193 3.62572 14.2 2.93333L12.6 0.8C12.2223 0.296388 11.629 0 10.9995 0H4.00049C3.37098 0 2.77771 0.296388 2.4 0.8L0.8 2.93333C0.280711 3.62572 0 4.46785 0 5.33333V12C0 13.6569 1.34315 15 3 15H12C13.6569 15 15 13.6569 15 12V5.33333ZM13.5 6.4986C13.4992 5.94696 13.0518 5.5 12.5 5.5H9V9C9 9.27614 8.77614 9.5 8.5 9.5H6.5C6.22386 9.5 6 9.27614 6 9V5.5H2.5C1.94772 5.5 1.5 5.94772 1.5 6.5V12C1.5 12.8284 2.17157 13.5 3 13.5H12C12.8284 13.5 13.5 12.8284 13.5 12V6.4986ZM13 3.83333C13.0406 3.88748 13.0789 3.94308 13.1148 4H8.91667L8.5 1.5H10.9995C11.1573 1.5 11.3058 1.57442 11.4 1.7L13 3.83333ZM6.5 1.5H4.00049C3.84271 1.5 3.69419 1.57442 3.6 1.7L2 3.83333C1.95939 3.88748 1.92112 3.94308 1.88523 4H6.08333L6.5 1.5Z" fill="white"/>
<path fill-rule="evenodd" clip-rule="evenodd" d="M15 5.33333C15 4.46785 14.7193 3.62572 14.2 2.93333L12.6 0.8C12.2223 0.296388 11.629 0 10.9995 0H4.00049C3.37098 0 2.77771 0.296388 2.4 0.8L0.8 2.93333C0.280711 3.62572 0 4.46785 0 5.33333V12C0 13.6569 1.34315 15 3 15H12C13.6569 15 15 13.6569 15 12V5.33333ZM13.5 6.4986C13.4992 5.94696 13.0518 5.5 12.5 5.5H9V9C9 9.27614 8.77614 9.5 8.5 9.5H6.5C6.22386 9.5 6 9.27614 6 9V5.5H2.5C1.94772 5.5 1.5 5.94772 1.5 6.5V12C1.5 12.8284 2.17157 13.5 3 13.5H12C12.8284 13.5 13.5 12.8284 13.5 12V6.4986ZM13 3.83333C13.0406 3.88748 13.0789 3.94308 13.1148 4H8.91667L8.5 1.5H10.9995C11.1573 1.5 11.3058 1.57442 11.4 1.7L13 3.83333ZM6.5 1.5H4.00049C3.84271 1.5 3.69419 1.57442 3.6 1.7L2 3.83333C1.95939 3.88748 1.92112 3.94308 1.88523 4H6.08333L6.5 1.5Z" fill="white"/>
</svg>
