<svg width="16" height="16" viewBox="0 0 16 16" fill="none" xmlns="http://www.w3.org/2000/svg">
<path fill-rule="evenodd" clip-rule="evenodd" d="M10.4373 4.76195L15.1344 5.16463C15.7959 5.22133 16.0629 6.04607 15.5603 6.47973L12.0033 9.5488L13.0681 14.1142C13.2185 14.7593 12.5198 15.2685 11.9518 14.9276L7.90829 12.5014L3.86767 14.9259C3.29919 15.267 2.60016 14.7569 2.75162 14.1115L3.82229 9.5488L0.261611 6.48222C-0.242023 6.04847 0.0256944 5.22244 0.68801 5.16658L5.37929 4.7709L7.21889 0.455872C7.47794 -0.151776 8.33918 -0.152012 8.59856 0.455494L10.4373 4.76195ZM4.52429 12.8593L7.90829 10.8283L11.3013 12.8683L10.4013 9.0388L13.3893 6.46195L9.44729 6.12195L7.90829 2.50722L6.37829 6.11301L2.43629 6.45301L5.42429 9.02985L4.52429 12.8593Z" fill="white"/>
</svg>
