<svg width="16" height="15" viewBox="0 0 16 15" fill="none" xmlns="http://www.w3.org/2000/svg">
<path fill-rule="evenodd" clip-rule="evenodd" d="M14.481 4.60961C15.3199 4.60961 16 3.97192 16 3.1853C16 2.55287 15.5553 1.99618 14.908 1.81842L8.56217 0.0756082C8.1951 -0.0252028 7.8049 -0.0252027 7.43783 0.0756083L1.09201 1.81842C0.444743 1.99618 0 2.55287 0 3.1853C0 3.97192 0.680067 4.60961 1.51897 4.60961H14.481ZM1.50081 3.17979C1.50081 3.17979 1.5 3.18237 1.5 3.1853C1.5 3.18838 1.50041 3.19038 1.50041 3.19038L1.50088 3.19179C1.50088 3.19179 1.50275 3.19525 1.50556 3.19788C1.50836 3.20051 1.51205 3.20227 1.51205 3.20227L1.51356 3.20271C1.51356 3.20271 1.51569 3.20309 1.51897 3.20309H14.481C14.4843 3.20309 14.4864 3.20271 14.4864 3.20271L14.488 3.20227C14.488 3.20227 14.4916 3.20051 14.4944 3.19788C14.4972 3.19525 14.4991 3.19179 14.4991 3.19179L14.4996 3.19038C14.4996 3.19038 14.5 3.18838 14.5 3.1853C14.5 3.18237 14.4992 3.17979 14.4992 3.17979C14.4992 3.17979 14.4977 3.17656 14.4962 3.17463C14.4947 3.17271 14.4918 3.1705 14.4918 3.1705C14.4918 3.1705 14.4894 3.16905 14.4864 3.16823L8.14054 1.42542C8.04877 1.40022 7.95122 1.40022 7.85946 1.42542L1.51364 3.16823C1.51064 3.16905 1.50823 3.1705 1.50823 3.1705C1.50823 3.1705 1.50532 3.17271 1.50379 3.17463C1.50225 3.17656 1.50081 3.17979 1.50081 3.17979Z" fill="white"/>
<path d="M13.25 9.76684V6.01613C13.25 5.62773 12.9142 5.31287 12.5 5.31287C12.0858 5.31287 11.75 5.62773 11.75 6.01613V9.76684C11.75 10.1552 12.0858 10.4701 12.5 10.4701C12.9142 10.4701 13.25 10.1552 13.25 9.76684Z" fill="white"/>
<path d="M7.25 9.76684C7.25 10.1552 7.58579 10.4701 8 10.4701C8.41421 10.4701 8.75 10.1552 8.75 9.76684V6.01613C8.75 5.62773 8.41421 5.31287 8 5.31287C7.58579 5.31287 7.25 5.62773 7.25 6.01613V9.76684Z" fill="white"/>
<path d="M4.25 6.01613C4.25 5.62773 3.91421 5.31287 3.5 5.31287C3.08579 5.31287 2.75 5.62773 2.75 6.01613V9.76684C2.75 10.1552 3.08579 10.4701 3.5 10.4701C3.91421 10.4701 4.25 10.1552 4.25 9.76684V6.01613Z" fill="white"/>
<path d="M0 14.2967C0 13.9083 0.335786 13.5935 0.75 13.5935H15.25C15.6642 13.5935 16 13.9083 16 14.2967C16 14.6851 15.6642 15 15.25 15H0.75C0.335786 15 0 14.6851 0 14.2967Z" fill="white"/>
<path d="M2.5 11.2521C2.08579 11.2521 1.75 11.567 1.75 11.9554C1.75 12.3438 2.08579 12.6587 2.5 12.6587H13.5C13.9142 12.6587 14.25 12.3438 14.25 11.9554C14.25 11.567 13.9142 11.2521 13.5 11.2521H2.5Z" fill="white"/>
</svg>
