<svg width="16" height="16" viewBox="0 0 16 16" fill="none" xmlns="http://www.w3.org/2000/svg">
<path fill-rule="evenodd" clip-rule="evenodd" d="M0 8C0 3.58172 3.58172 0 8 0C12.4183 0 16 3.58172 16 8C16 12.4183 12.4183 16 8 16C3.58172 16 0 12.4183 0 8ZM4.75978 7.25H1.59518C1.88157 4.77765 3.56645 2.73158 5.83824 1.92334C5.27369 2.96163 4.83023 4.61224 4.75978 7.25ZM8 1.75977C8.01917 1.76596 8.04395 1.77524 8.07346 1.78901C8.18606 1.84156 8.39921 1.97424 8.6397 2.31093C9.09539 2.94889 9.65702 4.33403 9.73966 7.25H6.26034C6.34298 4.33401 6.90461 2.94887 7.3603 2.31091C7.60079 1.97424 7.81394 1.84155 7.92653 1.78901C7.95604 1.77524 7.98083 1.76596 8 1.75977ZM4.75978 8.75C4.83023 11.3878 5.2737 13.0384 5.83825 14.0767C3.56645 13.2684 1.88157 11.2223 1.59518 8.75H4.75978ZM8 14.2402C7.98084 14.234 7.95605 14.2248 7.92654 14.211C7.81394 14.1584 7.60079 14.0258 7.3603 13.6891C6.90461 13.0511 6.34298 11.666 6.26034 8.75H9.73966C9.65702 11.666 9.09539 13.0511 8.6397 13.6891C8.39922 14.0258 8.18606 14.1584 8.07347 14.211C8.04396 14.2248 8.01917 14.234 8 14.2402ZM11.2402 8.75C11.1698 11.3878 10.7263 13.0384 10.1618 14.0767C12.4335 13.2684 14.1184 11.2223 14.4048 8.75H11.2402ZM10.1617 1.92334C10.7263 2.96163 11.1698 4.61224 11.2402 7.25H14.4048C14.1184 4.77765 12.4335 2.73157 10.1617 1.92334Z" fill="white"/>
</svg>
