<svg width="26" height="24" viewBox="0 0 26 24" fill="none" xmlns="http://www.w3.org/2000/svg">
<path fill-rule="evenodd" clip-rule="evenodd" d="M23.5317 7.37538C24.8949 7.37538 26 6.35508 26 5.09648C26 4.08459 25.2773 3.19389 24.2255 2.90946L13.9135 0.120973C13.317 -0.0403244 12.683 -0.0403244 12.0865 0.120973L1.77452 2.90946C0.722707 3.19389 0 4.08459 0 5.09648C0 6.35508 1.10511 7.37538 2.46833 7.37538H23.5317ZM2.43881 5.08767C2.43881 5.08767 2.4375 5.09179 2.4375 5.09648C2.4375 5.1014 2.43816 5.1046 2.43816 5.1046L2.43892 5.10687C2.43892 5.10687 2.44197 5.1124 2.44653 5.11661C2.45109 5.12082 2.45708 5.12363 2.45708 5.12363L2.45953 5.12433C2.45953 5.12433 2.463 5.12495 2.46833 5.12495H23.5317C23.537 5.12495 23.5405 5.12433 23.5405 5.12433L23.5429 5.12363C23.5429 5.12363 23.5489 5.12082 23.5535 5.11661C23.558 5.1124 23.5611 5.10687 23.5611 5.10687L23.5618 5.1046C23.5618 5.1046 23.5625 5.1014 23.5625 5.09648C23.5625 5.09179 23.5612 5.08767 23.5612 5.08767C23.5612 5.08767 23.5588 5.08249 23.5563 5.07941C23.5539 5.07634 23.5491 5.0728 23.5491 5.0728C23.5491 5.0728 23.5452 5.07048 23.5403 5.06916L13.2284 2.28067C13.0793 2.24035 12.9207 2.24035 12.7716 2.28067L2.45966 5.06916C2.45479 5.07048 2.45087 5.0728 2.45087 5.0728C2.45087 5.0728 2.44615 5.07634 2.44366 5.07941C2.44116 5.08249 2.43881 5.08767 2.43881 5.08767Z" fill="white"/>
<path d="M21.5312 15.6269V9.6258C21.5312 9.00436 20.9856 8.50059 20.3125 8.50059C19.6394 8.50059 19.0938 9.00436 19.0938 9.6258V15.6269C19.0938 16.2484 19.6394 16.7522 20.3125 16.7522C20.9856 16.7522 21.5312 16.2484 21.5312 15.6269Z" fill="white"/>
<path d="M11.7812 15.6269C11.7812 16.2484 12.3269 16.7522 13 16.7522C13.6731 16.7522 14.2188 16.2484 14.2188 15.6269V9.6258C14.2188 9.00436 13.6731 8.50059 13 8.50059C12.3269 8.50059 11.7812 9.00436 11.7812 9.6258V15.6269Z" fill="white"/>
<path d="M6.90625 9.6258C6.90625 9.00436 6.3606 8.50059 5.6875 8.50059C5.0144 8.50059 4.46875 9.00436 4.46875 9.6258V15.6269C4.46875 16.2484 5.0144 16.7522 5.6875 16.7522C6.3606 16.7522 6.90625 16.2484 6.90625 15.6269V9.6258Z" fill="white"/>
<path d="M0 22.8748C0 22.2533 0.545653 21.7496 1.21875 21.7496H24.7812C25.4543 21.7496 26 22.2533 26 22.8748C26 23.4962 25.4543 24 24.7812 24H1.21875C0.545653 24 0 23.4962 0 22.8748Z" fill="white"/>
<path d="M4.0625 18.0034C3.3894 18.0034 2.84375 18.5072 2.84375 19.1286C2.84375 19.7501 3.3894 20.2539 4.0625 20.2539H21.9375C22.6106 20.2539 23.1562 19.7501 23.1562 19.1286C23.1562 18.5072 22.6106 18.0034 21.9375 18.0034H4.0625Z" fill="white"/>
</svg>
