<svg width="26" height="26" viewBox="0 0 26 26" fill="none" xmlns="http://www.w3.org/2000/svg">
<path d="M9.84848 6.09375C9.84848 6.76685 9.31937 7.3125 8.66667 7.3125C8.01397 7.3125 7.48485 6.76685 7.48485 6.09375C7.48485 5.42065 8.01397 4.875 8.66667 4.875C9.31937 4.875 9.84848 5.42065 9.84848 6.09375Z" fill="white"/>
<path d="M8.66667 12.1875C9.31937 12.1875 9.84848 11.6418 9.84848 10.9688C9.84848 10.2957 9.31937 9.75 8.66667 9.75C8.01397 9.75 7.48485 10.2957 7.48485 10.9688C7.48485 11.6418 8.01397 12.1875 8.66667 12.1875Z" fill="white"/>
<path d="M14.1818 6.09375C14.1818 6.76685 13.6527 7.3125 13 7.3125C12.3473 7.3125 11.8182 6.76685 11.8182 6.09375C11.8182 5.42065 12.3473 4.875 13 4.875C13.6527 4.875 14.1818 5.42065 14.1818 6.09375Z" fill="white"/>
<path d="M13 12.1875C13.6527 12.1875 14.1818 11.6418 14.1818 10.9688C14.1818 10.2957 13.6527 9.75 13 9.75C12.3473 9.75 11.8182 10.2957 11.8182 10.9688C11.8182 11.6418 12.3473 12.1875 13 12.1875Z" fill="white"/>
<path d="M18.5152 6.09375C18.5152 6.76685 17.986 7.3125 17.3333 7.3125C16.6806 7.3125 16.1515 6.76685 16.1515 6.09375C16.1515 5.42065 16.6806 4.875 17.3333 4.875C17.986 4.875 18.5152 5.42065 18.5152 6.09375Z" fill="white"/>
<path d="M17.3333 12.1875C17.986 12.1875 18.5152 11.6418 18.5152 10.9688C18.5152 10.2957 17.986 9.75 17.3333 9.75C16.6806 9.75 16.1515 10.2957 16.1515 10.9688C16.1515 11.6418 16.6806 12.1875 17.3333 12.1875Z" fill="white"/>
<path fill-rule="evenodd" clip-rule="evenodd" d="M2.75758 5.57143V23.5625H1.18182C0.529118 23.5625 0 24.1082 0 24.7812C0 25.4543 0.529118 26 1.18182 26H24.8182C25.4709 26 26 25.4543 26 24.7812C26 24.1082 25.4709 23.5625 24.8182 23.5625H23.2424V5.57143C23.2424 2.49441 20.8236 0 17.8398 0H8.16017C5.1764 0 2.75758 2.49441 2.75758 5.57143ZM17.8398 2.78571H8.16017C6.66829 2.78571 5.45887 4.03292 5.45887 5.57143V23.5625H10.6364V21.125C10.6364 18.981 11.4242 16.6562 14.5757 16.6562C17.7273 16.6562 18.5152 18.9162 18.5152 21.125V23.5625H20.5411V5.57143C20.5411 4.03292 19.3317 2.78571 17.8398 2.78571ZM16.1515 23.5625V21.125C16.1515 20.1349 15.6175 19.0938 14.5757 19.0938C13.534 19.0938 13 20.291 13 21.125C13 21.6356 13.0028 22.1052 13.0055 22.5471C13.0076 22.9007 13.0097 23.2376 13.0101 23.5625H16.1515Z" fill="white"/>
</svg>
