<svg width="22" height="26" viewBox="0 0 22 26" fill="none" xmlns="http://www.w3.org/2000/svg">
<path fill-rule="evenodd" clip-rule="evenodd" d="M19.6428 22.75V6.2212C19.6428 6.00571 19.5601 5.79905 19.4127 5.64667L16.5395 2.67547C16.3922 2.5231 16.1924 2.4375 15.984 2.4375H3.1431C2.70918 2.4375 2.35741 2.80126 2.35741 3.24999L2.35726 22.75C2.35725 23.1987 2.70902 23.5625 3.14294 23.5625H18.8571C19.2911 23.5625 19.6428 23.1987 19.6428 22.75ZM19.0189 25.9958C18.9654 25.9986 18.9115 26 18.8574 26H3.14294C1.40724 26 -4.63912e-05 24.5449 -3.2192e-05 22.75L0.00012207 3.24997C0.00013627 1.45506 1.40719 0 3.14288 0L15.984 0C16.8175 0 17.6171 0.342407 18.2065 0.951898L21.0796 3.9231C21.669 4.53259 22.0001 5.35924 22.0001 6.2212V22.75C22.0001 24.4889 20.6795 25.9088 19.0189 25.9958ZM10.9857 5.18614C11.6366 5.18614 12.1643 5.73179 12.1643 6.40489V6.77519C13.3638 7.13746 14.1653 7.96838 14.5228 8.33906L14.555 8.37234C15.0152 8.84829 15.0152 9.61996 14.555 10.0959C14.0947 10.5719 13.3485 10.5719 12.8883 10.0959C12.4148 9.60632 11.8166 9.03826 10.9857 9.03826C10.5491 9.03826 10.1231 9.19282 9.82837 9.4299C9.54639 9.6567 9.42839 9.91382 9.42839 10.1772C9.42839 10.4232 9.48197 10.5607 9.54543 10.6701C9.6262 10.8093 9.74117 10.9381 9.96408 11.1694C9.97529 11.177 9.9945 11.1896 10.0237 11.2072C10.1041 11.2556 10.2184 11.317 10.3685 11.3912C10.6698 11.5402 11.0444 11.7065 11.45 11.8862L11.4646 11.8927C11.8528 12.0648 12.2702 12.2497 12.6199 12.4227C12.7976 12.5106 12.9754 12.6039 13.1336 12.6991C13.2729 12.783 13.4743 12.9133 13.643 13.0877L13.6713 13.117C14.1424 13.6036 14.9002 14.3862 14.9002 15.8357C14.9002 16.8264 14.5711 17.7769 13.8137 18.4622C13.3524 18.8797 12.7895 19.1468 12.1643 19.2881V19.608C12.1643 20.2811 11.6366 20.8268 10.9857 20.8268C10.3349 20.8268 9.80721 20.2811 9.80721 19.608V19.2482C8.61696 18.9056 7.86548 18.1134 7.49881 17.7268C7.46881 17.6952 7.44138 17.6663 7.41651 17.6406C6.95626 17.1646 6.95626 16.3929 7.41651 15.917C7.87675 15.441 8.62296 15.441 9.08321 15.917L9.13048 15.9659C9.60819 16.4609 10.1039 16.9746 10.9857 16.9746C11.7142 16.9746 12.0864 16.7863 12.2616 16.6278C12.4161 16.488 12.5431 16.2596 12.5431 15.8357C12.5431 15.5897 12.4895 15.4522 12.426 15.3428C12.3453 15.2036 12.2303 15.0748 12.0074 14.8435C11.9962 14.8359 11.977 14.8233 11.9478 14.8057C11.8673 14.7573 11.7531 14.6959 11.603 14.6217C11.3017 14.4727 10.9271 14.3064 10.5215 14.1267L10.5068 14.1202C10.1186 13.9481 9.7013 13.7632 9.35155 13.5902C9.17393 13.5023 8.99609 13.409 8.83789 13.3138C8.6986 13.2299 8.49718 13.0996 8.32847 12.9252L8.30015 12.8959C7.82904 12.4093 7.07132 11.6267 7.07132 10.1772C7.07132 9.02598 7.6373 8.10424 8.38127 7.50585C8.80108 7.16819 9.29036 6.91991 9.80721 6.76968V6.40489C9.80721 5.73179 10.3349 5.18614 10.9857 5.18614Z" fill="white"/>
</svg>
