<svg width="52" height="52" viewBox="0 0 52 52" fill="none" xmlns="http://www.w3.org/2000/svg">
<g clip-path="url(#clip0_14_22)">
<path fill-rule="evenodd" clip-rule="evenodd" d="M43.994 8.00585C39.2134 3.22122 32.8556 0.584904 26.082 0.582214C12.1251 0.582214 0.765996 11.937 0.76041 25.8939C0.758548 30.3553 1.92459 34.7102 4.14034 38.5489L0.548096 51.6662L13.9714 48.1463C17.6698 50.1628 21.8339 51.2255 26.0718 51.2273H26.0822C40.0376 51.2273 51.3978 39.8711 51.4035 25.9141C51.4062 19.1504 48.7748 12.7905 43.994 8.00585ZM26.0822 46.952H26.0736C22.2972 46.9506 18.5931 45.9364 15.3618 44.0194L14.5933 43.5634L6.62778 45.6523L8.75396 37.8884L8.25348 37.0925C6.14675 33.7426 5.03401 29.8708 5.03566 25.8955C5.04028 14.2951 14.4816 4.85747 26.0906 4.85747C31.7119 4.8596 36.9962 7.05095 40.9698 11.0278C44.9433 15.0046 47.1304 20.2907 47.1283 25.9125C47.1235 37.5137 37.6822 46.952 26.0822 46.952ZM37.6265 31.1947C36.9937 30.8781 33.8831 29.3479 33.3031 29.1368C32.7232 28.9258 32.3015 28.8203 31.8796 29.4535C31.4579 30.0866 30.2454 31.5113 29.8762 31.9334C29.5072 32.3555 29.1382 32.4084 28.5054 32.0917C27.8727 31.7751 25.8341 31.1073 23.4175 28.9524C21.5367 27.2754 20.2668 25.204 19.8977 24.5709C19.5287 23.9376 19.8585 23.5953 20.1752 23.28C20.4598 22.9966 20.8079 22.5413 21.1243 22.1719C21.4406 21.8026 21.546 21.5387 21.7569 21.1167C21.9678 20.6945 21.8624 20.3251 21.7042 20.0085C21.546 19.692 20.2807 16.5788 19.7534 15.3124C19.2399 14.079 18.7183 14.2459 18.3299 14.2266C17.9613 14.2083 17.5391 14.2043 17.1173 14.2043C16.6955 14.2043 16.0101 14.3627 15.4301 14.9958C14.8502 15.629 13.2158 17.1592 13.2158 20.2724C13.2158 23.3855 15.4829 26.3931 15.7992 26.8152C16.1155 27.2374 20.2606 33.6261 26.6074 36.3657C28.1169 37.0174 29.2954 37.4065 30.2143 37.6982C31.73 38.1794 33.1092 38.1115 34.1994 37.9487C35.415 37.7671 37.9427 36.4186 38.47 34.9411C38.9972 33.4637 38.9972 32.1973 38.839 31.9335C38.6809 31.6696 38.2591 31.5113 37.6265 31.1947Z" fill="white"/>
</g>
<defs>
<clipPath id="clip0_14_22">
<rect width="51.084" height="51.084" fill="white" transform="translate(0.433594 0.582214)"/>
</clipPath>
</defs>
</svg>
